<svg width="1400" height="700" viewBox="0 0 1400 700" fill="none" xmlns="http://www.w3.org/2000/svg">
  <defs>
    <linearGradient id="bg" x1="0" y1="0" x2="1400" y2="700" gradientUnits="userSpaceOnUse">
      <stop stop-color="#032813"/>
      <stop offset="1" stop-color="#001109"/>
    </linearGradient>
    <linearGradient id="bike" x1="470" y1="184" x2="1054" y2="417" gradientUnits="userSpaceOnUse">
      <stop stop-color="#48FF24"/>
      <stop offset="1" stop-color="#10D17A"/>
    </linearGradient>
    <radialGradient id="wheel" cx="0" cy="0" r="1" gradientUnits="userSpaceOnUse" gradientTransform="translate(392 492) rotate(90) scale(95)">
      <stop stop-color="#A5B8B2"/>
      <stop offset="1" stop-color="#171D1B"/>
    </radialGradient>
  </defs>
  <rect width="1400" height="700" rx="30" fill="url(#bg)"/>

  <ellipse cx="700" cy="545" rx="520" ry="42" fill="#001F0F"/>

  <circle cx="392" cy="492" r="112" fill="#090D0C" stroke="#2EFF75" stroke-opacity="0.55" stroke-width="10"/>
  <circle cx="392" cy="492" r="76" fill="url(#wheel)"/>
  <circle cx="1024" cy="492" r="112" fill="#090D0C" stroke="#2EFF75" stroke-opacity="0.55" stroke-width="10"/>
  <circle cx="1024" cy="492" r="76" fill="url(#wheel)"/>

  <path d="M462 438H890C912 438 929 422 936 401L980 266H1060L999 397C978 442 933 473 885 473H480L462 438Z" fill="#0A0F0D"/>
  <path d="M484 315L708 224H884C927 224 963 257 968 300L978 364H732L544 350L484 315Z" fill="url(#bike)"/>
  <path d="M684 218L744 164H896L932 224L684 218Z" fill="#1CFF70"/>
  <path d="M888 264L1046 291L1065 323L949 334L888 264Z" fill="#2BFA77"/>
  <path d="M629 357L736 355L710 421H588L629 357Z" fill="#171D1B"/>
  <path d="M543 347L604 299L700 302L719 337L543 347Z" fill="#2DFF7F" fill-opacity="0.78"/>
  <path d="M720 204L766 167H878L887 196L720 204Z" fill="#0A0F0D"/>

  <rect x="1001" y="226" width="120" height="14" rx="7" fill="#C9FFF2"/>
  <rect x="1040" y="247" width="50" height="13" rx="6.5" fill="#0A0F0D"/>

  <circle cx="392" cy="492" r="10" fill="#C9FFF2"/>
  <circle cx="1024" cy="492" r="10" fill="#C9FFF2"/>

  <text x="66" y="94" fill="#58FF2A" font-family="Poppins, Arial" font-size="54" font-weight="700">NinjaH2R Graphic</text>
</svg>
